<?xml version="1.0" encoding="iso-8859-1"?>
<!-- Generator: Adobe Illustrator 19.0.0, SVG Export Plug-In . SVG Version: 6.00 Build 0)  -->
<svg version="1.1" id="Layer_1" xmlns="http://www.w3.org/2000/svg" xmlns:xlink="http://www.w3.org/1999/xlink" x="0px" y="0px"
	 viewBox="0 0 500 500" style="enable-background:new 0 0 500 500;" xml:space="preserve">
<circle style="fill:#90DFAA;" cx="250" cy="250" r="250"/>
<rect x="93.8" y="93.8" style="fill:#2C9984;" width="312.5" height="281.2"/>
<rect x="117.2" y="164.5" style="fill:#E6E9EE;" width="265.6" height="187"/>
<rect x="117.2" y="118.1" style="fill:#FF7058;" width="28.9" height="19.5"/>
<rect x="159.9" y="118.1" style="fill:#FFFFFF;" width="28.9" height="19.5"/>
<rect x="202.6" y="118.1" style="fill:#4CDBC4;" width="28.9" height="19.5"/>
<rect x="281.9" y="118.1" style="fill:#FFFFFF;" width="100.9" height="19.5"/>
<circle style="fill:#324A5E;" cx="230.5" cy="269.5" r="68.1"/>
<circle style="fill:#FFFFFF;" cx="230.5" cy="269.5" r="54.6"/>
<rect x="163.006" y="303.046" transform="matrix(-0.7071 -0.7071 0.7071 -0.7071 80.1227 673.7796)" style="fill:#324A5E;" width="33.2" height="34.5"/>
<g>
	<path style="fill:#F1543F;" d="M151,316.1l-50.4,50.4c-9.1,9.1-9.1,23.8,0,32.9l0,0c9.1,9.1,23.8,9.1,32.9,0l50.4-50.4L151,316.1z"
		/>
	<path style="fill:#F1543F;" d="M237.5,286.6h-14V279c0-3.3,0.4-5.8,1.2-7.4s2.5-3.7,5.1-6.4l9-9c1.9-2.1,2.8-4.6,2.8-7.7
		c0-3-1-5.6-3-7.6s-4.5-3-7.7-3c-3.1,0-5.8,1-7.9,2.9c-2.1,1.9-3.3,4.5-3.7,7.7h-15c0.8-7.3,3.7-13.1,8.6-17.3
		c4.9-4.2,11-6.2,18.4-6.2c7.3,0,13.3,2,17.9,6c4.6,4,6.9,9.6,6.9,16.8c0,4.9-1.4,9.1-4.1,12.4c-1.6,2-2.8,3.4-3.6,4.2
		c-0.8,0.8-1.9,1.9-3.3,3.2c-1.4,1.3-2.5,2.4-3.5,3.3c-0.9,0.9-1.7,1.8-2.3,2.4c-1.5,1.8-2.2,4.4-2.2,7.7v5.6H237.5z M230.7,314
		c-2.6,0-4.8-0.9-6.7-2.7c-1.9-1.8-2.8-3.9-2.8-6.4s0.9-4.7,2.8-6.5c1.9-1.8,4.1-2.7,6.7-2.7c2.6,0,4.8,0.9,6.7,2.7
		c1.9,1.8,2.8,3.9,2.8,6.4s-0.9,4.7-2.8,6.5C235.5,313.1,233.3,314,230.7,314z"/>
</g>
<g>
</g>
<g>
</g>
<g>
</g>
<g>
</g>
<g>
</g>
<g>
</g>
<g>
</g>
<g>
</g>
<g>
</g>
<g>
</g>
<g>
</g>
<g>
</g>
<g>
</g>
<g>
</g>
<g>
</g>
</svg>
